<?xml version="1.0" encoding="utf-8"?>
<!-- Generator: Adobe Illustrator 19.2.1, SVG Export Plug-In . SVG Version: 6.00 Build 0)  -->
<svg version="1.1" id="linkedin" xmlns="http://www.w3.org/2000/svg" xmlns:xlink="http://www.w3.org/1999/xlink" x="0px" y="0px"
	 viewBox="0 0 100 100" style="enable-background:new 0 0 100 100;" xml:space="preserve">
<style type="text/css">
	.st0{fill:#84C441;}
	.st1{fill:#FFFFFF;}
</style>
<circle class="st0" cx="50" cy="50" r="48"/>
<g>
	<path class="st1" d="M32.7,25.7h36.1c3.4,0,6.2,2.5,6.2,6.2V68c0,3.7-2.8,6.2-6.2,6.2H32.7c-3.4,0-6.2-2.5-6.2-6.2V32
		C26.5,28.3,29.3,25.7,32.7,25.7L32.7,25.7z M61.8,31.1c-1.2,0-2.2,1-2.2,2.2v5.2c0,1.2,1,2.2,2.2,2.2h5.5c1.2,0,2.2-1,2.2-2.2v-5.2
		c0-1.2-1-2.2-2.2-2.2H61.8L61.8,31.1z M69.5,46.3h-4.3c0.4,1.3,0.6,2.7,0.6,4.2c0,8.1-6.8,14.6-15.1,14.6
		c-8.3,0-15.1-6.5-15.1-14.6c0-1.4,0.2-2.8,0.6-4.2h-4.5v20.5c0,1.1,0.9,1.9,1.9,1.9h33.8c1.1,0,1.9-0.9,1.9-1.9L69.5,46.3
		L69.5,46.3z M50.8,40.5c-5.4,0-9.7,4.2-9.7,9.4s4.4,9.4,9.7,9.4c5.4,0,9.7-4.2,9.7-9.4S56.2,40.5,50.8,40.5z"/>
</g>
</svg>
